<?xml version="1.0" standalone="no"?>
<!DOCTYPE svg PUBLIC "-//W3C//DTD SVG 20010904//EN"
 "http://www.w3.org/TR/2001/REC-SVG-20010904/DTD/svg10.dtd">
<svg version="1.0" xmlns="http://www.w3.org/2000/svg"
 width="1854.000000pt" height="1854.000000pt" viewBox="0 0 1854.000000 1854.000000"
 preserveAspectRatio="xMidYMid meet">
<metadata>
Created by potrace 1.14, written by Peter Selinger 2001-2017
</metadata>
<g transform="translate(0.000000,1854.000000) scale(0.100000,-0.100000)"
fill="#000000" stroke="none">
<path d="M17124 18382 c-100 -81 -199 -161 -220 -179 -22 -17 -217 -174 -434
-348 -217 -174 -404 -324 -415 -334 -11 -9 -90 -72 -175 -141 -85 -69 -164
-132 -175 -141 -21 -18 -183 -147 -415 -333 -74 -59 -144 -116 -156 -125 -11
-10 -99 -81 -195 -157 -96 -76 -176 -141 -179 -144 -3 -3 -75 -61 -160 -130
-85 -68 -169 -135 -186 -149 -17 -14 -48 -39 -69 -56 -21 -16 -226 -181 -455
-365 -229 -184 -433 -348 -454 -365 -22 -16 -44 -34 -50 -40 -6 -5 -45 -37
-86 -70 -41 -33 -80 -64 -86 -70 -7 -5 -101 -82 -210 -169 l-199 -159 0 -5034
c0 -2768 -2 -5033 -5 -5033 -7 0 -50 39 -178 158 -59 55 -123 114 -142 132
-19 18 -82 76 -140 130 -58 54 -119 111 -136 126 -17 16 -81 76 -143 133 -61
57 -120 111 -130 120 -10 9 -69 63 -131 121 -62 58 -129 121 -150 140 -72 66
-264 245 -285 265 -12 11 -48 45 -81 74 -32 30 -93 87 -134 125 -70 66 -266
248 -330 306 -63 58 -235 217 -265 245 -17 17 -58 55 -91 85 -33 30 -120 111
-194 180 -74 69 -159 148 -189 175 -30 28 -66 61 -81 75 -15 14 -78 72 -140
130 -62 58 -129 120 -149 139 -20 18 -76 71 -126 116 -49 46 -108 101 -131
122 -22 21 -92 85 -154 143 -63 58 -141 130 -174 161 -34 31 -75 70 -92 85
-119 110 -253 234 -284 264 -20 19 -79 73 -130 120 -51 47 -106 99 -124 115
-17 17 -85 80 -151 140 -66 60 -134 123 -151 140 -17 16 -78 73 -135 125 -56
52 -117 109 -135 125 -28 27 -158 148 -318 295 -32 30 -78 72 -100 93 -98 93
-258 242 -275 256 -10 9 -69 63 -131 121 -62 58 -127 118 -144 133 -17 16 -61
57 -97 90 -36 34 -112 105 -169 157 -56 52 -119 111 -140 130 -20 19 -88 82
-151 140 -62 58 -143 133 -179 166 -36 34 -78 74 -95 89 -33 29 -294 272 -405
375 -20 19 -83 78 -140 130 -57 52 -138 127 -179 166 -42 39 -89 84 -106 98
-16 15 -79 74 -140 130 -60 57 -123 115 -140 130 -16 15 -73 67 -125 116 -52
48 -109 101 -126 116 -17 16 -82 76 -144 134 -62 58 -125 116 -140 130 -15 14
-78 72 -140 130 -62 58 -127 118 -144 134 -113 104 -261 241 -321 297 -38 37
-83 79 -100 93 -16 15 -74 69 -129 119 -54 51 -110 103 -125 116 -14 13 -60
56 -102 95 -41 39 -104 98 -140 130 -75 69 -135 125 -319 296 -74 69 -168 156
-210 195 -41 38 -100 93 -130 121 -30 29 -73 68 -95 87 -22 20 -65 59 -96 89
-31 29 -100 94 -153 143 -110 100 -126 116 -286 265 -62 58 -121 112 -131 121
-15 13 -180 166 -294 273 -16 15 -72 67 -124 115 -51 47 -121 112 -155 143
l-61 57 -3 -7776 c-1 -4277 0 -7778 3 -7781 2 -2 81 51 176 119 402 290 630
454 719 517 215 154 385 277 390 282 5 6 150 109 197 140 12 8 171 123 353
255 183 132 351 254 375 270 23 17 53 38 66 47 42 31 126 93 146 106 10 7 275
197 588 423 314 225 634 456 713 512 79 56 149 107 155 112 12 11 438 317 576
415 177 125 271 195 271 200 0 3 -139 93 -308 200 -169 107 -360 228 -424 270
-64 41 -150 96 -190 121 -40 26 -146 93 -235 150 -89 57 -171 109 -181 114
-10 6 -41 25 -69 43 l-52 33 -73 -54 c-40 -30 -163 -118 -273 -197 -110 -79
-254 -182 -320 -230 -66 -48 -198 -143 -294 -211 -332 -237 -437 -313 -594
-427 -87 -63 -160 -112 -163 -110 -2 3 -3 1890 -2 4193 l3 4189 30 -28 c126
-117 233 -216 265 -246 36 -34 213 -198 270 -250 15 -14 78 -72 140 -130 62
-58 128 -118 145 -135 18 -16 86 -79 151 -140 66 -60 155 -143 199 -184 44
-41 112 -104 150 -140 39 -37 126 -118 195 -181 117 -107 198 -183 275 -255
60 -56 150 -140 275 -255 68 -63 154 -143 190 -177 36 -34 75 -70 88 -81 13
-11 72 -66 131 -121 60 -56 121 -113 137 -128 33 -29 249 -231 334 -310 30
-28 66 -61 79 -72 13 -12 77 -70 141 -131 64 -61 127 -118 138 -128 12 -11 76
-70 144 -133 67 -63 134 -125 149 -139 15 -14 78 -73 141 -131 62 -58 127
-118 143 -133 79 -72 237 -218 304 -282 42 -39 110 -102 151 -140 41 -38 110
-103 155 -144 44 -41 105 -97 135 -125 56 -51 163 -151 210 -195 14 -14 80
-74 145 -135 66 -60 156 -144 200 -185 44 -41 130 -121 190 -176 61 -56 124
-115 140 -130 61 -57 251 -233 280 -260 39 -35 246 -228 299 -277 23 -22 66
-62 96 -89 96 -89 378 -350 461 -428 14 -14 75 -70 135 -125 59 -55 140 -130
179 -166 125 -117 194 -181 430 -399 82 -76 137 -128 260 -243 39 -36 82 -76
95 -87 14 -12 77 -70 140 -129 63 -59 129 -120 145 -135 51 -47 237 -220 259
-241 12 -11 109 -101 216 -200 107 -99 218 -201 245 -226 28 -26 69 -65 91
-86 23 -21 93 -86 155 -144 63 -58 128 -118 144 -133 35 -32 211 -195 265
-246 33 -31 189 -176 274 -254 59 -54 250 -231 320 -297 39 -36 83 -77 97 -90
28 -25 216 -200 278 -258 20 -18 78 -72 130 -120 51 -47 119 -110 150 -139 31
-30 74 -70 96 -89 22 -20 69 -64 105 -97 36 -34 130 -122 210 -196 80 -74 150
-139 156 -145 6 -5 57 -53 114 -105 57 -52 137 -127 179 -167 42 -39 77 -70
79 -69 1 2 4 662 7 1467 2 805 7 2216 10 3134 4 919 8 2210 10 2870 5 1563 16
4884 18 5417 1 229 4 418 7 421 10 9 158 123 189 147 19 14 77 59 131 100 54
41 112 86 130 100 18 14 171 131 339 260 169 129 324 248 346 264 22 17 42 32
45 35 9 10 130 101 134 101 2 0 5 -219 6 -487 2 -695 9 -2682 9 -2720 l1 -32
48 52 c26 28 81 88 123 132 42 44 87 92 100 106 13 15 81 87 150 160 70 74
146 154 169 179 23 25 106 112 184 195 255 270 283 300 321 340 43 46 243 259
361 383 l81 85 0 2554 c0 1404 -3 2553 -6 2552 -3 0 -88 -66 -187 -147z"/>
<path d="M3685 16949 c-396 -264 -724 -484 -729 -489 -6 -6 35 -53 110 -126
65 -64 288 -282 494 -484 206 -202 427 -418 490 -480 63 -62 283 -277 489
-479 205 -201 427 -418 491 -481 65 -63 223 -218 352 -345 233 -228 858 -840
1092 -1069 66 -65 285 -279 486 -476 201 -197 421 -413 490 -480 69 -67 294
-288 500 -490 206 -203 427 -418 490 -480 63 -62 279 -273 480 -470 201 -197
421 -413 490 -480 69 -67 294 -288 500 -490 206 -202 425 -417 487 -476 61
-60 274 -269 473 -464 199 -195 436 -428 528 -517 l167 -162 3 1282 2 1282
-63 60 c-54 51 -212 201 -487 465 -31 30 -133 128 -226 216 -93 89 -200 192
-239 229 -38 37 -144 137 -234 223 -90 87 -189 182 -221 212 -112 107 -434
416 -512 491 -44 42 -140 134 -215 205 -74 71 -163 156 -198 189 -159 153
-445 427 -490 470 -58 55 -384 367 -460 440 -58 56 -357 342 -450 430 -33 31
-145 139 -250 239 -104 100 -204 195 -221 212 -28 25 -291 277 -454 434 -31
30 -135 129 -230 220 -95 91 -201 192 -235 225 -64 61 -350 336 -462 441 -34
33 -139 133 -233 224 -95 91 -198 190 -230 220 -32 30 -142 136 -245 235 -104
99 -209 200 -235 225 -26 25 -132 126 -236 225 -103 99 -204 195 -223 213 -20
19 -54 51 -76 72 l-40 39 -720 -480z"/>
</g>
</svg>
